<?xml version="1.0" ?><!DOCTYPE svg  PUBLIC '-//W3C//DTD SVG 1.1//EN'  'http://www.w3.org/Graphics/SVG/1.1/DTD/svg11.dtd'><svg xmlns="http://www.w3.org/2000/svg" xmlns:xlink="http://www.w3.org/1999/xlink" version="1.1" id="Layer_1" width="512px" height="512px" viewBox="0 0 512 512" enable-background="new 0 0 512 512" xml:space="preserve"><path d="M184.948,237.556l-22.466,50.513c-1.952,4.387-6.244,7.269-11.043,7.414c-0.127,0.004-0.254,0.006-0.38,0.006  c-4.654,0-8.937-2.59-11.091-6.738l-9.611-18.506l-9.611,18.506c-2.213,4.263-6.668,6.896-11.472,6.732  c-4.799-0.146-9.091-3.027-11.043-7.414l-22.466-50.513c-2.805-6.308,0.034-13.696,6.342-16.501  c6.308-2.806,13.696,0.033,16.501,6.341l11.917,26.794l8.739-16.828c2.15-4.14,6.428-6.738,11.093-6.738s8.943,2.599,11.093,6.738  l8.739,16.828l11.917-26.794c2.806-6.307,10.192-9.146,16.501-6.341C184.914,223.859,187.753,231.248,184.948,237.556z   M304.251,221.055c-6.312-2.808-13.696,0.034-16.501,6.341l-11.917,26.794l-8.74-16.828c-2.15-4.14-6.427-6.738-11.093-6.738  c-4.666,0-8.943,2.599-11.093,6.738l-8.739,16.828l-11.917-26.794c-2.805-6.308-10.194-9.146-16.501-6.341  c-6.308,2.805-9.147,10.193-6.342,16.501l22.466,50.513c1.952,4.387,6.244,7.269,11.043,7.414c0.127,0.004,0.253,0.006,0.38,0.006  c4.653,0,8.937-2.59,11.091-6.738L256,270.244l9.611,18.506c2.213,4.262,6.677,6.861,11.471,6.732  c4.8-0.146,9.092-3.027,11.043-7.414l22.467-50.513C313.397,231.248,310.559,223.86,304.251,221.055z M498.5,230.215v51.57  c0,32.174-23.841,58.875-54.782,63.388c-34.345,72.271-107.172,118.568-187.628,118.602c-0.03,0-0.06,0.004-0.089,0.004  c-0.033,0-0.066-0.004-0.099-0.004c-80.61-0.038-153.271-46.287-187.614-118.602C37.343,340.662,13.5,313.96,13.5,281.785v-51.57  c0-32.174,23.841-58.874,54.782-63.388C102.639,94.529,175.508,48.224,256,48.224c80.491,0,153.36,46.306,187.718,118.603  C474.659,171.34,498.5,198.041,498.5,230.215z M310.101,81.395c19.558,18.148,40.453,45.29,53.79,84.75h51.32  C392.071,125.139,354.248,95.057,310.101,81.395z M268.5,166.146h68.798c-18.522-47.94-49.653-73.33-68.798-85.09V166.146z   M174.71,166.146h68.79V81.082c-5.669,3.479-12.371,8.13-19.451,14.174C202.178,113.928,185.644,137.734,174.71,166.146z   M96.788,166.146h51.32c13.338-39.461,34.232-66.602,53.791-84.75C157.751,95.057,119.928,125.138,96.788,166.146z M201.943,430.646  c-19.571-18.148-40.487-45.301-53.834-84.791H96.777C119.924,386.921,157.732,417.007,201.943,430.646z M243.5,345.854h-68.789  c10.933,28.411,27.466,52.216,49.337,70.888c7.081,6.046,13.782,10.697,19.453,14.176V345.854z M337.29,345.854H268.5v85.064  c5.668-3.478,12.369-8.129,19.451-14.175C309.822,398.072,326.356,374.266,337.29,345.854z M415.212,345.854h-51.32  c-13.338,39.46-34.232,66.602-53.791,84.75C354.248,416.943,392.071,386.861,415.212,345.854z M473.5,230.215  c0-21.543-17.526-39.069-39.069-39.069H77.569c-21.543,0-39.069,17.526-39.069,39.069v51.57c0,21.543,17.526,39.069,39.069,39.069  h356.861c21.543,0,39.069-17.526,39.069-39.069V230.215z M429.895,221.055c-6.31-2.808-13.697,0.034-16.501,6.341l-11.917,26.793  l-8.739-16.827c-2.15-4.14-6.427-6.738-11.093-6.738s-8.942,2.599-11.093,6.738l-8.74,16.828l-11.917-26.794  c-2.806-6.308-10.194-9.146-16.501-6.341c-6.308,2.806-9.146,10.193-6.341,16.501l22.467,50.513  c1.951,4.387,6.243,7.269,11.043,7.414c4.792,0.164,9.258-2.47,11.471-6.732l9.611-18.506l9.611,18.506  c2.154,4.148,6.438,6.738,11.091,6.738c0.127,0,0.253-0.002,0.38-0.006c4.8-0.146,9.092-3.027,11.043-7.414l22.466-50.513  C439.041,231.247,436.202,223.859,429.895,221.055z"/></svg>