<?xml version="1.0" ?><svg height="32" id="icon" viewBox="0 0 32 32" width="32" xmlns="http://www.w3.org/2000/svg"><defs><style>
      .cls-1 {
        fill: none;
      }
    </style></defs><circle cx="9" cy="6" r="1"/><path d="M26,2H6A2,2,0,0,0,4,4V8a2,2,0,0,0,2,2h9v4h2V10h9a2,2,0,0,0,2-2V4A2,2,0,0,0,26,2Zm0,6H6V4H26Z" transform="translate(0 0)"/><polygon points="17 28 17 26 15 26 15 28 4 28 4 30 28 30 28 28 17 28"/><circle cx="9" cy="20" id="machine" r="1"/><path d="M6,24H26a2,2,0,0,0,2-2V18a2,2,0,0,0-2-2H6a2,2,0,0,0-2,2v4A2,2,0,0,0,6,24Zm0-6H26v4H6Z" data-name="dedicated host" id="dedicated_host" transform="translate(0 0)"/><rect class="cls-1" data-name="&lt;Transparent Rectangle&gt;" height="32" id="_Transparent_Rectangle_" width="32"/></svg>