<svg xmlns="http://www.w3.org/2000/svg" xmlns:xlink="http://www.w3.org/1999/xlink" width="500" zoomAndPan="magnify" viewBox="0 0 375 374.999991" height="500" preserveAspectRatio="xMidYMid meet" version="1.0"><path fill="#000000" d="M 358.402344 1.160156 L 17.757812 1.160156 C 8.605469 1.160156 1.160156 8.605469 1.160156 17.757812 L 1.160156 358.402344 C 1.160156 367.554688 8.605469 375 17.757812 375 L 358.402344 375 C 367.554688 375 375 367.554688 375 358.402344 L 375 17.757812 C 375 8.605469 367.554688 1.160156 358.402344 1.160156 Z M 17.757812 14.285156 L 358.402344 14.285156 C 360.316406 14.285156 361.871094 15.84375 361.871094 17.757812 L 361.871094 58.492188 L 14.285156 58.492188 L 14.285156 17.757812 C 14.285156 15.84375 15.84375 14.285156 17.757812 14.285156 Z M 358.402344 361.871094 L 17.757812 361.871094 C 15.84375 361.871094 14.285156 360.316406 14.285156 358.402344 L 14.285156 71.621094 L 361.871094 71.621094 L 361.871094 358.402344 C 361.871094 360.316406 360.316406 361.871094 358.402344 361.871094 Z M 358.402344 361.871094 " fill-opacity="1" fill-rule="nonzero"/><path fill="#000000" d="M 316.390625 239.777344 L 69.574219 239.777344 C 59.75 239.777344 51.757812 247.769531 51.757812 257.59375 L 51.757812 323.230469 C 51.757812 333.054688 59.75 341.046875 69.574219 341.046875 L 316.390625 341.046875 C 326.214844 341.046875 334.207031 333.054688 334.207031 323.230469 L 334.207031 257.59375 C 334.207031 247.769531 326.214844 239.777344 316.390625 239.777344 Z M 321.078125 323.230469 C 321.078125 325.8125 318.976562 327.917969 316.390625 327.917969 L 69.574219 327.917969 C 66.988281 327.917969 64.882812 325.8125 64.882812 323.230469 L 64.882812 257.59375 C 64.882812 255.007812 66.988281 252.902344 69.574219 252.902344 L 316.390625 252.902344 C 318.976562 252.902344 321.078125 255.007812 321.078125 257.59375 Z M 321.078125 323.230469 " fill-opacity="1" fill-rule="nonzero"/><path fill="#000000" d="M 69.574219 190.394531 L 133.230469 190.394531 C 143.054688 190.394531 151.046875 182.398438 151.046875 172.578125 L 151.046875 108.917969 C 151.046875 99.09375 143.054688 91.101562 133.230469 91.101562 L 69.574219 91.101562 C 59.75 91.101562 51.757812 99.09375 51.757812 108.917969 L 51.757812 172.578125 C 51.757812 182.398438 59.75 190.394531 69.574219 190.394531 Z M 64.882812 108.917969 C 64.882812 106.332031 66.988281 104.230469 69.574219 104.230469 L 133.230469 104.230469 C 135.816406 104.230469 137.921875 106.332031 137.921875 108.917969 L 137.921875 172.578125 C 137.921875 175.160156 135.816406 177.265625 133.230469 177.265625 L 69.574219 177.265625 C 66.988281 177.265625 64.882812 175.160156 64.882812 172.578125 Z M 64.882812 108.917969 " fill-opacity="1" fill-rule="nonzero"/><path fill="#000000" d="M 327.644531 207.582031 L 58.320312 207.582031 C 54.695312 207.582031 51.757812 210.523438 51.757812 214.144531 C 51.757812 217.773438 54.695312 220.710938 58.320312 220.710938 L 327.644531 220.710938 C 331.269531 220.710938 334.207031 217.773438 334.207031 214.144531 C 334.207031 210.523438 331.269531 207.582031 327.644531 207.582031 Z M 327.644531 207.582031 " fill-opacity="1" fill-rule="nonzero"/><path fill="#000000" d="M 327.644531 173.359375 L 178.867188 173.359375 C 175.242188 173.359375 172.300781 176.296875 172.300781 179.921875 C 172.300781 183.546875 175.242188 186.484375 178.867188 186.484375 L 327.644531 186.484375 C 331.269531 186.484375 334.207031 183.546875 334.207031 179.921875 C 334.207031 176.296875 331.269531 173.359375 327.644531 173.359375 Z M 327.644531 173.359375 " fill-opacity="1" fill-rule="nonzero"/><path fill="#000000" d="M 327.644531 133.976562 L 178.867188 133.976562 C 175.242188 133.976562 172.300781 136.914062 172.300781 140.539062 C 172.300781 144.164062 175.242188 147.101562 178.867188 147.101562 L 327.644531 147.101562 C 331.269531 147.101562 334.207031 144.164062 334.207031 140.539062 C 334.207031 136.914062 331.269531 133.976562 327.644531 133.976562 Z M 327.644531 133.976562 " fill-opacity="1" fill-rule="nonzero"/><path fill="#000000" d="M 327.644531 94.59375 L 178.867188 94.59375 C 175.242188 94.59375 172.300781 97.53125 172.300781 101.15625 C 172.300781 104.78125 175.242188 107.71875 178.867188 107.71875 L 327.644531 107.71875 C 331.269531 107.71875 334.207031 104.78125 334.207031 101.15625 C 334.207031 97.53125 331.269531 94.59375 327.644531 94.59375 Z M 327.644531 94.59375 " fill-opacity="1" fill-rule="nonzero"/><path fill="#000000" d="M 53.238281 35.753906 C 53.238281 36.445312 53.171875 37.132812 53.035156 37.8125 C 52.902344 38.492188 52.703125 39.148438 52.4375 39.789062 C 52.171875 40.429688 51.847656 41.039062 51.460938 41.613281 C 51.078125 42.191406 50.640625 42.722656 50.148438 43.210938 C 49.660156 43.703125 49.125 44.140625 48.550781 44.523438 C 47.976562 44.910156 47.367188 45.234375 46.726562 45.5 C 46.085938 45.765625 45.425781 45.964844 44.75 46.097656 C 44.070312 46.234375 43.382812 46.300781 42.691406 46.300781 C 41.996094 46.300781 41.3125 46.234375 40.632812 46.097656 C 39.953125 45.964844 39.292969 45.765625 38.652344 45.5 C 38.011719 45.234375 37.40625 44.910156 36.828125 44.523438 C 36.253906 44.140625 35.722656 43.703125 35.230469 43.210938 C 34.742188 42.722656 34.304688 42.191406 33.917969 41.613281 C 33.535156 41.039062 33.210938 40.429688 32.945312 39.789062 C 32.679688 39.148438 32.480469 38.492188 32.34375 37.8125 C 32.207031 37.132812 32.140625 36.445312 32.140625 35.753906 C 32.140625 35.0625 32.207031 34.375 32.34375 33.695312 C 32.480469 33.015625 32.679688 32.355469 32.945312 31.714844 C 33.210938 31.078125 33.535156 30.46875 33.917969 29.894531 C 34.304688 29.316406 34.742188 28.785156 35.230469 28.292969 C 35.722656 27.804688 36.253906 27.367188 36.828125 26.980469 C 37.40625 26.597656 38.011719 26.273438 38.652344 26.007812 C 39.292969 25.742188 39.953125 25.542969 40.632812 25.40625 C 41.3125 25.273438 41.996094 25.203125 42.691406 25.203125 C 43.382812 25.203125 44.070312 25.273438 44.75 25.40625 C 45.425781 25.542969 46.085938 25.742188 46.726562 26.007812 C 47.367188 26.273438 47.976562 26.597656 48.550781 26.980469 C 49.125 27.367188 49.660156 27.804688 50.148438 28.292969 C 50.640625 28.785156 51.078125 29.316406 51.460938 29.894531 C 51.847656 30.46875 52.171875 31.078125 52.4375 31.714844 C 52.703125 32.355469 52.902344 33.015625 53.035156 33.695312 C 53.171875 34.375 53.238281 35.0625 53.238281 35.753906 Z M 53.238281 35.753906 " fill-opacity="1" fill-rule="nonzero"/><path fill="#000000" d="M 86.527344 35.753906 C 86.527344 36.445312 86.460938 37.132812 86.324219 37.8125 C 86.1875 38.492188 85.988281 39.148438 85.722656 39.789062 C 85.457031 40.429688 85.132812 41.039062 84.75 41.613281 C 84.363281 42.191406 83.925781 42.722656 83.4375 43.210938 C 82.949219 43.703125 82.414062 44.140625 81.839844 44.523438 C 81.261719 44.910156 80.65625 45.234375 80.015625 45.5 C 79.375 45.765625 78.714844 45.964844 78.035156 46.097656 C 77.355469 46.234375 76.671875 46.300781 75.976562 46.300781 C 75.285156 46.300781 74.597656 46.234375 73.917969 46.097656 C 73.242188 45.964844 72.582031 45.765625 71.941406 45.5 C 71.300781 45.234375 70.691406 44.910156 70.117188 44.523438 C 69.542969 44.140625 69.007812 43.703125 68.519531 43.210938 C 68.027344 42.722656 67.589844 42.191406 67.207031 41.613281 C 66.820312 41.039062 66.496094 40.429688 66.230469 39.789062 C 65.96875 39.148438 65.765625 38.492188 65.632812 37.8125 C 65.496094 37.132812 65.429688 36.445312 65.429688 35.753906 C 65.429688 35.0625 65.496094 34.375 65.632812 33.695312 C 65.765625 33.015625 65.96875 32.355469 66.230469 31.714844 C 66.496094 31.078125 66.820312 30.46875 67.207031 29.894531 C 67.589844 29.316406 68.027344 28.785156 68.519531 28.292969 C 69.007812 27.804688 69.542969 27.367188 70.117188 26.980469 C 70.691406 26.597656 71.300781 26.273438 71.941406 26.007812 C 72.582031 25.742188 73.242188 25.542969 73.917969 25.40625 C 74.597656 25.273438 75.285156 25.203125 75.976562 25.203125 C 76.671875 25.203125 77.355469 25.273438 78.035156 25.40625 C 78.714844 25.542969 79.375 25.742188 80.015625 26.007812 C 80.65625 26.273438 81.261719 26.597656 81.839844 26.980469 C 82.414062 27.367188 82.949219 27.804688 83.4375 28.292969 C 83.925781 28.785156 84.363281 29.316406 84.75 29.894531 C 85.132812 30.46875 85.457031 31.078125 85.722656 31.714844 C 85.988281 32.355469 86.1875 33.015625 86.324219 33.695312 C 86.460938 34.375 86.527344 35.0625 86.527344 35.753906 Z M 86.527344 35.753906 " fill-opacity="1" fill-rule="nonzero"/><path fill="#000000" d="M 119.8125 35.753906 C 119.8125 36.445312 119.746094 37.132812 119.613281 37.8125 C 119.476562 38.492188 119.277344 39.148438 119.011719 39.789062 C 118.746094 40.429688 118.421875 41.039062 118.035156 41.613281 C 117.652344 42.191406 117.214844 42.722656 116.726562 43.210938 C 116.234375 43.703125 115.703125 44.140625 115.125 44.523438 C 114.550781 44.910156 113.941406 45.234375 113.300781 45.5 C 112.664062 45.765625 112.003906 45.964844 111.324219 46.097656 C 110.644531 46.234375 109.957031 46.300781 109.265625 46.300781 C 108.574219 46.300781 107.886719 46.234375 107.207031 46.097656 C 106.527344 45.964844 105.867188 45.765625 105.226562 45.5 C 104.589844 45.234375 103.980469 44.910156 103.40625 44.523438 C 102.828125 44.140625 102.296875 43.703125 101.804688 43.210938 C 101.316406 42.722656 100.878906 42.191406 100.496094 41.613281 C 100.109375 41.039062 99.785156 40.429688 99.519531 39.789062 C 99.253906 39.148438 99.054688 38.492188 98.917969 37.8125 C 98.785156 37.132812 98.714844 36.445312 98.714844 35.753906 C 98.714844 35.0625 98.785156 34.375 98.917969 33.695312 C 99.054688 33.015625 99.253906 32.355469 99.519531 31.714844 C 99.785156 31.078125 100.109375 30.46875 100.496094 29.894531 C 100.878906 29.316406 101.316406 28.785156 101.804688 28.292969 C 102.296875 27.804688 102.828125 27.367188 103.40625 26.980469 C 103.980469 26.597656 104.589844 26.273438 105.226562 26.007812 C 105.867188 25.742188 106.527344 25.542969 107.207031 25.40625 C 107.886719 25.273438 108.574219 25.203125 109.265625 25.203125 C 109.957031 25.203125 110.644531 25.273438 111.324219 25.40625 C 112.003906 25.542969 112.664062 25.742188 113.300781 26.007812 C 113.941406 26.273438 114.550781 26.597656 115.125 26.980469 C 115.703125 27.367188 116.234375 27.804688 116.726562 28.292969 C 117.214844 28.785156 117.652344 29.316406 118.035156 29.894531 C 118.421875 30.46875 118.746094 31.078125 119.011719 31.714844 C 119.277344 32.355469 119.476562 33.015625 119.613281 33.695312 C 119.746094 34.375 119.8125 35.0625 119.8125 35.753906 Z M 119.8125 35.753906 " fill-opacity="1" fill-rule="nonzero"/></svg>