<?xml version="1.0" ?><!DOCTYPE svg  PUBLIC '-//W3C//DTD SVG 1.1//EN'  'http://www.w3.org/Graphics/SVG/1.1/DTD/svg11.dtd'><svg xmlns="http://www.w3.org/2000/svg" xmlns:xlink="http://www.w3.org/1999/xlink" version="1.1" id="Layer_1" width="512px" height="512px" viewBox="0 0 512 512" enable-background="new 0 0 512 512" xml:space="preserve"><path d="M256.004,498.5c-43.512,0-86.001-11.589-123.213-33.564L44.283,482.4c-4.087,0.807-8.312-0.477-11.259-3.425  c-2.947-2.947-4.231-7.169-3.425-11.259l17.465-88.509C20.628,334.402,9.239,281.393,14.96,229.354  c5.993-54.527,30.696-105.959,69.56-144.821C130.325,38.727,191.224,13.5,255.998,13.5c64.775,0,125.671,25.227,171.471,71.033  c45.805,45.798,71.031,106.694,71.031,171.469c0,64.774-25.227,125.673-71.032,171.479C381.671,473.278,320.777,498.5,256.004,498.5  z M135.116,439.236c2.308,0,4.587,0.639,6.576,1.87c34.256,21.192,73.784,32.394,114.312,32.394  c58.096,0,112.711-22.621,153.786-63.697c41.084-41.084,63.71-95.705,63.71-153.801c0-58.096-22.626-112.714-63.709-153.792  C368.712,61.125,314.095,38.5,255.998,38.5s-112.717,22.626-153.801,63.71c-71.718,71.717-84.591,181.963-31.304,268.098  c1.661,2.685,2.245,5.898,1.634,8.996l-14.791,74.959l74.96-14.791C133.499,439.314,134.31,439.236,135.116,439.236z   M325.092,402.34c-22.611,0-43.868-8.805-59.856-24.793L134.453,246.765c-33.005-33.005-33.005-86.708,0-119.713l8.291-8.291  c5.864-5.864,13.661-9.094,21.955-9.094c8.293,0,16.09,3.229,21.955,9.093l45.325,45.325c4.295,4.294,4.881,11.055,1.39,16.024  c-5.735,8.164-9.522,16.734-10.951,24.784c-0.917,5.161-1.583,14.687,4.25,20.52l59.919,59.919  c4.016,4.016,9.804,4.859,13.952,4.859c2.081,0,4.29-0.205,6.565-0.609c8.053-1.429,16.622-5.215,24.786-10.951  c4.968-3.491,11.729-2.905,16.024,1.39l45.325,45.325c12.105,12.106,12.105,31.804,0,43.909l-8.291,8.292  C368.961,393.535,347.703,402.34,325.092,402.34z M164.699,134.667c-0.937,0-2.736,0.23-4.277,1.771l-8.291,8.292  c-11.267,11.266-17.471,26.246-17.471,42.179c0,15.933,6.204,30.913,17.471,42.179l130.782,130.782  c11.267,11.267,26.245,17.471,42.179,17.471s30.913-6.205,42.18-17.471l8.291-8.291c2.358-2.358,2.358-6.196,0-8.555l-38.29-38.29  c-8.473,4.716-17.244,7.945-25.797,9.463c-3.712,0.66-7.393,0.995-10.937,0.995c-12.724,0-23.661-4.212-31.63-12.181l-59.919-59.919  c-10.267-10.267-14.24-25.385-11.188-42.569c1.519-8.551,4.747-17.322,9.464-25.794l-38.29-38.29  C167.436,134.896,165.635,134.667,164.699,134.667z"/></svg>